<?xml version="1.0" encoding="UTF-8" standalone="no"?>
<!-- Created with Inkscape (http://www.inkscape.org/) -->

<svg
   xmlns:dc="http://purl.org/dc/elements/1.1/"
   xmlns:cc="http://creativecommons.org/ns#"
   xmlns:rdf="http://www.w3.org/1999/02/22-rdf-syntax-ns#"
   xmlns:svg="http://www.w3.org/2000/svg"
   xmlns="http://www.w3.org/2000/svg"
   xmlns:sodipodi="http://sodipodi.sourceforge.net/DTD/sodipodi-0.dtd"
   xmlns:inkscape="http://www.inkscape.org/namespaces/inkscape"
   width="54.909523mm"
   height="36.124443mm"
   viewBox="0 0 194.56131 127.99999"
   id="svg2"
   version="1.1"
   inkscape:version="0.91 r13725"
   sodipodi:docname="devices-blue.svg">
  <defs
     id="defs4" />
  <sodipodi:namedview
     id="base"
     pagecolor="#ffffff"
     bordercolor="#666666"
     borderopacity="1.0"
     inkscape:pageopacity="0.0"
     inkscape:pageshadow="2"
     inkscape:zoom="4"
     inkscape:cx="32.792279"
     inkscape:cy="78.93012"
     inkscape:document-units="px"
     inkscape:current-layer="layer1"
     showgrid="false"
     inkscape:window-width="1918"
     inkscape:window-height="1184"
     inkscape:window-x="0"
     inkscape:window-y="14"
     inkscape:window-maximized="0"
     fit-margin-top="0"
     fit-margin-left="0"
     fit-margin-right="0"
     fit-margin-bottom="0" />
  <metadata
     id="metadata7">
    <rdf:RDF>
      <cc:Work
         rdf:about="">
        <dc:format>image/svg+xml</dc:format>
        <dc:type
           rdf:resource="http://purl.org/dc/dcmitype/StillImage" />
        <dc:title></dc:title>
      </cc:Work>
    </rdf:RDF>
  </metadata>
  <g
     inkscape:label="Calque 1"
     inkscape:groupmode="layer"
     id="layer1"
     transform="translate(-10273.097,-7631.753)">
    <path
       style="fill:none;fill-rule:evenodd;stroke:#000000;stroke-width:1px;stroke-linecap:butt;stroke-linejoin:miter;stroke-opacity:1"
       d="m -3096.1843,-2426.7663 -55.7143,592.8571"
       id="path4343"
       inkscape:connector-curvature="0" />
    <path
       style="fill:none;fill-rule:evenodd;stroke:#000000;stroke-width:1px;stroke-linecap:butt;stroke-linejoin:miter;stroke-opacity:1"
       d="m -3406.1843,-1798.1949 298.5715,-65.7143"
       id="path4345"
       inkscape:connector-curvature="0" />
    <g
       id="g4180"
       transform="matrix(1.0721483,0,0,1.0721483,-741.18676,-559.85319)">
      <g
         style="fill:#284a74;fill-opacity:1"
         id="g4224"
         transform="matrix(0.02531344,0,0,0.02531344,10060.486,7711.264)">
        <path
           id="path4226"
           transform="translate(12.387151,-91.052085)"
           d="m 9738.0117,-2709.7246 c -99.72,0 -180,80.28 -180,180 l 0,3469.99999 c 0,99.72001 80.28,180.00001 180,180.00001 l 4920.0003,0 c 99.72,0 180,-80.28 180,-180.00001 l 0,-3469.99999 c 0,-99.72 -80.28,-180 -180,-180 l -4920.0003,0 z m 2460.0003,85.584 a 30,30 0 0 1 30,30 30,30 0 0 1 -30,30 30,30 0 0 1 -30,-30 30,30 0 0 1 30,-30 z m -2385.0003,169.416 4770.0003,0 0,2719.99999 -4770.0003,0 0,-2719.99999 z"
           style="opacity:1;fill:#284a74;fill-opacity:1;stroke:none;stroke-width:3;stroke-linecap:round;stroke-linejoin:miter;stroke-miterlimit:4;stroke-dasharray:none;stroke-opacity:1"
           inkscape:connector-curvature="0" />
        <path
           id="path4228"
           transform="translate(12.387151,-91.052085)"
           d="m 11623.225,1170.2754 -38.823,441.8437 c 0,0 -2.734,39.6237 -14.142,54.5469 -9.892,12.9405 -42.428,24.2442 -42.428,24.2442 l -219.691,58.8632 842.841,0 94.059,0 842.842,0 -219.692,-58.8632 c 0,0 -32.535,-11.3037 -42.427,-24.2442 -11.407,-14.9232 -14.141,-54.5469 -14.141,-54.5469 l -38.824,-441.8437 -1149.574,0 z m -315.213,580 0,40 1780,0 0,-40 -1780,0 z"
           style="opacity:1;fill:#284a74;fill-opacity:1;stroke:none;stroke-width:3;stroke-linecap:round;stroke-linejoin:miter;stroke-miterlimit:4;stroke-dasharray:none;stroke-opacity:1"
           inkscape:connector-curvature="0" />
      </g>
      <rect
         ry="2.5313439"
         rx="2.5313439"
         y="7714.0874"
         x="10280.818"
         height="44.551655"
         width="64.043007"
         id="rect4289"
         style="opacity:1;fill:#ffffff;fill-opacity:1;stroke:#ffffff;stroke-width:1.26567197;stroke-linecap:round;stroke-linejoin:miter;stroke-miterlimit:4;stroke-dasharray:none;stroke-opacity:1" />
      <rect
         ry="2.5313439"
         rx="2.5313439"
         style="opacity:1;fill:#ffffff;fill-opacity:1;stroke:#ffffff;stroke-width:1.26567197;stroke-linecap:round;stroke-linejoin:miter;stroke-miterlimit:4;stroke-dasharray:none;stroke-opacity:1"
         id="rect4274"
         width="42.906281"
         height="60.752254"
         x="10407.768"
         y="7692.4912" />
      <path
         style="opacity:1;fill:#284a74;fill-opacity:1;stroke:none;stroke-width:3;stroke-linecap:round;stroke-linejoin:miter;stroke-miterlimit:4;stroke-dasharray:none;stroke-opacity:1"
         d="m 10410.299,7692.4911 c -1.402,0 -2.531,1.1289 -2.531,2.5313 l 0,55.6896 c 0,1.4023 1.129,2.5313 2.531,2.5313 l 37.844,0 c 1.402,0 2.531,-1.129 2.531,-2.5313 l 0,-55.6896 c 0,-1.4024 -1.129,-2.5313 -2.531,-2.5313 l -37.844,0 z m 18.922,2.4653 a 0.34173144,0.34173144 0 0 1 0.342,0.3417 0.34173144,0.34173144 0 0 1 -0.342,0.3418 0.34173144,0.34173144 0 0 1 -0.342,-0.3418 0.34173144,0.34173144 0 0 1 0.342,-0.3417 z m -18.858,2.8897 37.717,0 0,50.1206 -37.717,0 0,-50.1206 z m 18.858,51.6165 a 1.1391048,1.1391048 0 0 1 1.139,1.1391 1.1391048,1.1391048 0 0 1 -1.139,1.1391 1.1391048,1.1391048 0 0 1 -1.139,-1.1391 1.1391048,1.1391048 0 0 1 1.139,-1.1391 z"
         id="path4230"
         inkscape:connector-curvature="0" />
      <g
         transform="translate(-3.8002012,-5.3001075)"
         id="g4176">
        <rect
           style="opacity:1;fill:#ffffff;fill-opacity:1;stroke:#ffffff;stroke-width:1.26567197;stroke-linecap:round;stroke-linejoin:miter;stroke-miterlimit:4;stroke-dasharray:none;stroke-opacity:1"
           id="rect4244"
           width="16.985319"
           height="34.932549"
           x="10440.748"
           y="7727.9014"
           rx="2.5313439"
           ry="2.5313439" />
        <path
           inkscape:connector-curvature="0"
           id="path4232"
           d="m 10443.279,7727.9013 c -1.402,0 -2.531,1.129 -2.531,2.5313 l 0,29.8699 c 0,1.4024 1.129,2.5313 2.531,2.5313 l 11.923,0 c 1.402,0 2.531,-1.1289 2.531,-2.5313 l 0,-29.8699 c 0,-1.4023 -1.129,-2.5313 -2.531,-2.5313 l -11.923,0 z m 3.256,1.7022 a 0.27844784,0.27844784 0 0 1 0.279,0.2784 0.27844784,0.27844784 0 0 1 -0.279,0.2785 0.27844784,0.27844784 0 0 1 -0.278,-0.2785 0.27844784,0.27844784 0 0 1 0.278,-0.2784 z m 1.503,0.1507 2.405,0 c 0.07,0 0.127,0.056 0.127,0.1266 l 0,0 c 0,0.07 -0.06,0.1266 -0.127,0.1266 l -2.405,0 c -0.07,0 -0.126,-0.057 -0.126,-0.1266 l 0,0 c 0,-0.07 0.06,-0.1266 0.126,-0.1266 z m -6.362,2.0422 15.129,0 0,26.91 -15.129,0 0,-26.91 z m 7.565,27.6743 a 1.2150451,1.2150451 0 0 1 1.215,1.215 1.2150451,1.2150451 0 0 1 -1.215,1.2151 1.2150451,1.2150451 0 0 1 -1.215,-1.2151 1.2150451,1.2150451 0 0 1 1.215,-1.215 z"
           style="opacity:1;fill:#284a74;fill-opacity:1;stroke:none;stroke-width:3;stroke-linecap:round;stroke-linejoin:miter;stroke-miterlimit:4;stroke-dasharray:none;stroke-opacity:1" />
      </g>
      <g
         style="fill:#284a74;fill-opacity:1"
         id="g4234"
         transform="matrix(0.02531344,0,0,0.02531344,10252.553,7681.8249)">
        <path
           id="path4236"
           transform="translate(12.387151,-91.052085)"
           d="m 1204.2109,1365.5762 c -55.4,0 -100,44.6 -100,100 l 0,1560 c 0,7.141 0.7447,14.1008 2.1543,20.8105 l 2525.6895,0 c 1.4097,-6.7097 2.1562,-13.6695 2.1562,-20.8105 l 0,-1560 c 0,-55.4 -44.6,-100 -100,-100 l -2330,0 z m 1165,44.9707 a 15,15 0 0 1 15,15 15,15 0 0 1 -15,15 15,15 0 0 1 -15,-15 15,15 0 0 1 15,-15 z m -1187.5,60.4609 2375,0 0,1485 -2375,0 0,-1485 z"
           style="opacity:1;fill:#284a74;fill-opacity:1;stroke:none;stroke-width:3;stroke-linecap:round;stroke-linejoin:miter;stroke-miterlimit:4;stroke-dasharray:none;stroke-opacity:1"
           inkscape:connector-curvature="0" />
        <path
           id="path4238"
           transform="translate(12.387151,-91.052085)"
           d="m 799.21094,3066.3867 0,57 0.0117,0 c -10e-4,0.066 -0.0117,0.1327 -0.0117,0.1992 0,25.484 100.94606,46 226.33786,46 l 2687.3223,0 c 125.3919,0 226.3398,-20.516 226.3398,-46 0,-0.066 -0.01,-0.1327 -0.012,-0.1992 l 0.012,0 0,-57 -1350,0 c 0,21.0511 -16.9486,37.9981 -38,37.9981 l -364,0 c -21.0513,0 -37.9989,-16.947 -38,-37.9981 l -1349.99996,0 z"
           style="opacity:1;fill:#284a74;fill-opacity:1;stroke:none;stroke-width:3;stroke-linecap:round;stroke-linejoin:miter;stroke-miterlimit:4;stroke-dasharray:none;stroke-opacity:1"
           inkscape:connector-curvature="0" />
      </g>
    </g>
  </g>
</svg>
