<?xml version="1.0" encoding="UTF-8" standalone="no"?>
<svg
   xmlns:dc="http://purl.org/dc/elements/1.1/"
   xmlns:cc="http://creativecommons.org/ns#"
   xmlns:rdf="http://www.w3.org/1999/02/22-rdf-syntax-ns#"
   xmlns:svg="http://www.w3.org/2000/svg"
   xmlns="http://www.w3.org/2000/svg"
   xmlns:sodipodi="http://sodipodi.sourceforge.net/DTD/sodipodi-0.dtd"
   xmlns:inkscape="http://www.inkscape.org/namespaces/inkscape"
   version="1.1"
   width="19"
   height="19"
   viewBox="0 0 19 19"
   id="svg4389"
   inkscape:version="0.91 r13725"
   sodipodi:docname="dice.svg">
  <metadata
     id="metadata4401">
    <rdf:RDF>
      <cc:Work
         rdf:about="">
        <dc:format>image/svg+xml</dc:format>
        <dc:type
           rdf:resource="http://purl.org/dc/dcmitype/StillImage" />
      </cc:Work>
    </rdf:RDF>
  </metadata>
  <defs
     id="defs4399" />
  <sodipodi:namedview
     pagecolor="#ffffff"
     bordercolor="#666666"
     borderopacity="1"
     objecttolerance="10"
     gridtolerance="10"
     guidetolerance="10"
     inkscape:pageopacity="0"
     inkscape:pageshadow="2"
     inkscape:window-width="1918"
     inkscape:window-height="1184"
     id="namedview4397"
     showgrid="false"
     inkscape:zoom="8.7830105"
     inkscape:cx="-18.283754"
     inkscape:cy="16.579669"
     inkscape:window-x="0"
     inkscape:window-y="14"
     inkscape:window-maximized="0"
     inkscape:current-layer="svg4389" />
  <g
     transform="translate(-2185.8027,-187.15234)"
     id="g4359">
    <path
       inkscape:connector-curvature="0"
       id="path4319"
       d="m 2204.6074,191.75586 c -0.046,-0.004 -0.099,0.007 -0.164,0.0352 -2.3124,1.01953 -6.4786,2.85957 -8.0293,3.56836 -0.1524,0.0697 -0.6114,0.24189 -0.6114,0.75976 l 0,9.75781 c 0,0.12216 0.1265,0.19904 0.2403,0.14844 l 8.4238,-3.74609 c 0.2384,-0.10616 0.3359,-0.29135 0.3359,-0.39453 l 0,-9.76563 c 0,-0.20236 -0.058,-0.3503 -0.1953,-0.36328 z m -5.4121,4.73633 a 1.0663799,1.6053365 27.791448 0 1 0.4746,0.16211 1.0663799,1.6053365 27.791448 0 1 -0.025,2.02148 1.0663799,1.6053365 27.791448 0 1 -1.7031,0.66602 1.0663799,1.6053365 27.791448 0 1 0.025,-2.02149 1.0663799,1.6053365 27.791448 0 1 1.2285,-0.82812 z m 3.0254,2.23437 a 1.0276224,1.5469906 27.79145 0 1 0.457,0.15625 1.0276224,1.5469906 27.79145 0 1 -0.025,1.94727 1.0276224,1.5469906 27.79145 0 1 -1.6406,0.64258 1.0276224,1.5469906 27.79145 0 1 0.025,-1.94727 1.0276224,1.5469906 27.79145 0 1 1.1836,-0.79883 z"
       style="fill:#ffffff" />
    <path
       inkscape:connector-curvature="0"
       id="path4321"
       d="m 2185.998,191.75586 c -0.1377,0.013 -0.1953,0.16092 -0.1953,0.36328 l 0,9.76563 c 0,0.10318 0.098,0.28837 0.336,0.39453 l 8.4238,3.74609 c 0.1138,0.0506 0.2402,-0.0263 0.2402,-0.14844 l 0,-9.75781 c 0,-0.51787 -0.4589,-0.6901 -0.6113,-0.75976 -1.5507,-0.7088 -5.7149,-2.54883 -8.0273,-3.56836 -0.065,-0.0285 -0.1201,-0.0395 -0.1661,-0.0352 z m 6.3829,3.89453 a 1.6357266,1.0865672 61.40824 0 1 1.4785,1.19727 1.6357266,1.0865672 61.40824 0 1 -0.3965,1.82226 1.6357266,1.0865672 61.40824 0 1 -1.6992,-1.16406 1.6357266,1.0865672 61.40824 0 1 0.3945,-1.82031 1.6357266,1.0865672 61.40824 0 1 0.2227,-0.0352 z m -2.5938,1.93164 a 1.5771503,1.0476566 61.40824 0 1 1.4258,1.15625 1.5771503,1.0476566 61.40824 0 1 -0.3809,1.75586 1.5771503,1.0476566 61.40824 0 1 -1.6386,-1.12109 1.5771503,1.0476566 61.40824 0 1 0.3808,-1.75586 1.5771503,1.0476566 61.40824 0 1 0.2129,-0.0352 z m -2.4726,1.84375 a 1.53532,1.0198699 61.40824 0 1 1.3886,1.125 1.53532,1.0198699 61.40824 0 1 -0.3711,1.70899 1.53532,1.0198699 61.40824 0 1 -1.5957,-1.0918 1.53532,1.0198699 61.40824 0 1 0.3711,-1.70899 1.53532,1.0198699 61.40824 0 1 0.2071,-0.0332 z"
       style="fill:#ffffff" />
    <path
       inkscape:connector-curvature="0"
       id="path4323"
       d="m 2195.2793,187.26367 c -0.2377,0.003 -0.4676,0.0486 -0.6855,0.12891 l -8.0606,2.9707 c -0.202,0.0817 -0.3343,0.42194 0,0.57422 l 7.6992,3.24219 c 0.7992,0.33679 1.4191,0.30466 2.1426,0 l 7.6992,-3.24219 0,-0.002 c 0.3283,-0.15297 0.1974,-0.49087 0,-0.57227 l -8.0625,-2.9707 c -0.2485,-0.0916 -0.4948,-0.13173 -0.7324,-0.12891 z m 0.023,2.86914 a 1.6734587,0.74890563 0 0 1 1.6739,0.74805 1.6734587,0.74890563 0 0 1 -1.6739,0.75 1.6734587,0.74890563 0 0 1 -1.6738,-0.75 1.6734587,0.74890563 0 0 1 1.6738,-0.74805 z"
       style="fill:#ffffff" />
  </g>
</svg>
