<?xml version="1.0" encoding="UTF-8" standalone="no"?>
<svg
   xmlns:dc="http://purl.org/dc/elements/1.1/"
   xmlns:cc="http://creativecommons.org/ns#"
   xmlns:rdf="http://www.w3.org/1999/02/22-rdf-syntax-ns#"
   xmlns:svg="http://www.w3.org/2000/svg"
   xmlns="http://www.w3.org/2000/svg"
   xmlns:sodipodi="http://sodipodi.sourceforge.net/DTD/sodipodi-0.dtd"
   xmlns:inkscape="http://www.inkscape.org/namespaces/inkscape"
   version="1.1"
   id="svg4292"
   viewBox="0 0 30 30"
   height="30"
   width="30"
   inkscape:version="0.91 r13725"
   sodipodi:docname="eye#414141.svg">
  <sodipodi:namedview
     pagecolor="#ffffff"
     bordercolor="#666666"
     borderopacity="1"
     objecttolerance="10"
     gridtolerance="10"
     guidetolerance="10"
     inkscape:pageopacity="0"
     inkscape:pageshadow="2"
     inkscape:window-width="1918"
     inkscape:window-height="1184"
     id="namedview12"
     showgrid="false"
     inkscape:zoom="16"
     inkscape:cx="8.7663209"
     inkscape:cy="-3.8280532"
     inkscape:window-x="0"
     inkscape:window-y="14"
     inkscape:window-maximized="0"
     inkscape:current-layer="svg4292" />
  <defs
     id="defs4294" />
  <metadata
     id="metadata4297">
    <rdf:RDF>
      <cc:Work
         rdf:about="">
        <dc:format>image/svg+xml</dc:format>
        <dc:type
           rdf:resource="http://purl.org/dc/dcmitype/StillImage" />
        <dc:title></dc:title>
      </cc:Work>
    </rdf:RDF>
  </metadata>
  <path
     style="opacity:1;fill:#414141;fill-opacity:1;stroke:none;stroke-width:50;stroke-linecap:round;stroke-linejoin:miter;stroke-miterlimit:4;stroke-dasharray:none;stroke-opacity:1"
     d="M 15 8.0390625 A 19.5 19.5 0 0 0 0.080078125 14.986328 A 19.5 19.5 0 0 0 15 21.960938 A 19.5 19.5 0 0 0 29.919922 15.013672 A 19.5 19.5 0 0 0 15 8.0390625 z M 15 11 A 4 4 0 0 1 19 15 A 4 4 0 0 1 15 19 A 4 4 0 0 1 11 15 A 4 4 0 0 1 15 11 z "
     id="path4139" />
  <circle
     style="opacity:1;fill:#414141;fill-opacity:1;stroke:none;stroke-width:50;stroke-linecap:round;stroke-linejoin:miter;stroke-miterlimit:4;stroke-dasharray:none;stroke-opacity:1"
     id="path4150"
     cx="15"
     cy="15"
     r="1.5" />
</svg>
