<?xml version="1.0" encoding="UTF-8" standalone="no"?>
<svg
   xmlns:dc="http://purl.org/dc/elements/1.1/"
   xmlns:cc="http://creativecommons.org/ns#"
   xmlns:rdf="http://www.w3.org/1999/02/22-rdf-syntax-ns#"
   xmlns:svg="http://www.w3.org/2000/svg"
   xmlns="http://www.w3.org/2000/svg"
   version="1.1"
   id="svg4292"
   viewBox="0 0 30 30"
   height="30"
   width="30">
  <defs
     id="defs4294" />
  <metadata
     id="metadata4297">
    <rdf:RDF>
      <cc:Work
         rdf:about="">
        <dc:format>image/svg+xml</dc:format>
        <dc:type
           rdf:resource="http://purl.org/dc/dcmitype/StillImage" />
        <dc:title></dc:title>
      </cc:Work>
    </rdf:RDF>
  </metadata>
  <g
     transform="translate(0,-1022.3622)"
     id="layer1">
    <g
       transform="matrix(0.09873369,0,0,0.09873369,-38.047745,998.19429)"
       style="fill:#cccccc;fill-opacity:1"
       id="g4266">
      <g
         style="fill:#cccccc;fill-opacity:1"
         id="g4208"
         transform="translate(387.2518,246.18792)">
        <path
           id="path4198"
           d="M 150.0293,80.013672 A 199,199 0 0 0 -1.6347656,150.51562 199,199 0 0 0 7.6445312,161.00391 185,185 0 0 1 150.0293,94.013672 185,185 0 0 1 292.24219,160.93945 199,199 0 0 0 301.95312,150.51562 199,199 0 0 0 150.0293,80.013672 Z"
           style="opacity:1;fill:#cccccc;fill-opacity:1;stroke:none;stroke-width:0.91500002;stroke-linecap:round;stroke-linejoin:miter;stroke-miterlimit:4;stroke-dasharray:none;stroke-opacity:1" />
        <path
           id="path4203"
           d="M 292.41406,140.02539 A 185,185 0 0 1 150.0293,207.01562 185,185 0 0 1 7.8164062,140.08984 a 199,199 0 0 0 -9.7109374,10.42578 199,199 0 0 0 151.9238312,70.5 199,199 0 0 0 151.66601,-70.5 199,199 0 0 0 -9.28125,-10.49023 z"
           style="opacity:1;fill:#cccccc;fill-opacity:1;stroke:none;stroke-width:0.91500002;stroke-linecap:round;stroke-linejoin:miter;stroke-miterlimit:4;stroke-dasharray:none;stroke-opacity:1" />
      </g>
      <circle
         style="opacity:1;fill:#cccccc;fill-opacity:1;stroke:none;stroke-width:0.91500002;stroke-linecap:round;stroke-linejoin:miter;stroke-miterlimit:4;stroke-dasharray:none;stroke-opacity:1"
         id="circle4220"
         cx="537.28107"
         cy="396.70258"
         r="15" />
      <path
         style="opacity:1;fill:#cccccc;fill-opacity:1;stroke:none;stroke-width:0.91500002;stroke-linecap:round;stroke-linejoin:miter;stroke-miterlimit:4;stroke-dasharray:none;stroke-opacity:1"
         d="m 537.2811,346.70257 a 50,50 0 0 0 -50.00001,50 50,50 0 0 0 50.00001,50 50,50 0 0 0 50,-50 50,50 0 0 0 -50,-50 z m 0,14 a 36,36 0 0 1 36,36 36,36 0 0 1 -36,36 36,36 0 0 1 -36,-36 36,36 0 0 1 36,-36 z"
         id="path4216" />
    </g>
  </g>
</svg>
