<svg xmlns="http://www.w3.org/2000/svg" xmlns:xlink="http://www.w3.org/1999/xlink" width="136.533" height="136.533" viewBox="0 0 127.99999 127.99999"><defs><linearGradient id="a"><stop offset="0" stop-color="#284a74"/><stop offset="1" stop-color="#284a74" stop-opacity="0"/></linearGradient><linearGradient xlink:href="#a" id="b" x1="39.417" y1="356.439" x2="42.166" y2="356.439" gradientUnits="userSpaceOnUse"/></defs><g transform="matrix(4.57143 0 0 4.57143 -94.849 -1603.46)" stroke="#284a74" stroke-linecap="round"><path d="m 34.748207,352.71392 0,3.52338" fill="#fff" fill-rule="evenodd" stroke-width=".672"/><circle r="5.118" cy="364.757" cx="34.748" fill="#284a74" stroke-width=".401"/><path d="m 41.826871,355.01392 -2.07099,2.85047" fill="url(#b)" fill-rule="evenodd" stroke-width=".672"/><path d="M46.201728 361.03539l-3.350933 1.08879M46.201728 368.47834l-3.350933-1.08878M41.826868 374.49982l-2.07099-2.85048M34.748204 376.79982l0-3.52338M27.669538 374.49982l2.07099-2.85047M23.294681 368.47834l3.350933-1.08878M23.294681 361.03539l3.350933 1.08879M27.669538 355.01392l2.070991 2.85047" fill="#fff" fill-rule="evenodd" stroke-width=".672"/><path d="M32.23236 352.92075l.484882 2.28119M29.82647 353.70247l.948569 2.13052M37.264049 376.59299L36.779168 374.3118M39.669939 375.81127L38.72137 373.68074" fill="#fff" fill-rule="evenodd" stroke-width=".273"/><circle transform="rotate(36)" r="13.437" cy="274.67" cx="242.511" fill="none" stroke-width="1.131"/><path d="M37.264049 352.92075l-.484881 2.28119M39.669939 353.70247l-.948569 2.13052M32.23236 376.59299l.484882-2.28119M29.82647 375.81127l.948569-2.13053M45.227581 370.80714l-2.019699-1.16607M43.740658 372.85371L42.007534 371.2932M46.782459 366.02172l-2.319371-.24378M46.78246 363.49202l-2.319372.24377M22.713948 363.49202l2.319371.24377M22.713947 366.02172l2.319372-.24378M24.268825 358.7066l2.019699 1.16607M25.755746 356.66002l1.733124 1.56052M43.74066 356.66003l-1.733122 1.56051M45.227583 358.7066l-2.019698 1.16607M25.75575 372.85371l1.733122-1.56051M24.268827 370.80714l2.019698-1.16607" fill="#fff" fill-rule="evenodd" stroke-width=".273"/></g></svg>