<svg xmlns="http://www.w3.org/2000/svg" width="25" height="38" viewBox="0 0 24.999999 38"><path d="m -280.21234,1203.8622 a 10.500002,10.500002 0 0 0 -10.5,10.5 l 0,2.5 3,0 0,-2.5 a 7.5000017,7.5000017 0 0 1 7.5,-7.5 7.5000017,7.5000017 0 0 1 7.5,7.5 l 0,8.5 -15,0 -3,0 -2.00195,0 0,19 25,0 0,-19 -1.99805,0 0,-8.5 a 10.500002,10.500002 0 0 0 -10.5,-10.5 z m -0.002,24 c 0.831,0 1.5,0.669 1.5,1.5 l 0,6 c 0,0.831 -0.669,1.5 -1.5,1.5 -0.831,0 -1.5,-0.669 -1.5,-1.5 l 0,-6 c 0,-0.831 0.669,-1.5 1.5,-1.5 z" fill="#fff" transform="translate(292.714 -1203.862)"/></svg>