<svg xmlns="http://www.w3.org/2000/svg" viewBox="0 0 30 30" height="30" width="30"><g transform="matrix(.09873 0 0 .09873 -38.048 -24.168)" fill="#fff"><path d="M 150.0293,80.013672 A 199,199 0 0 0 -1.6347656,150.51562 199,199 0 0 0 7.6445312,161.00391 185,185 0 0 1 150.0293,94.013672 185,185 0 0 1 292.24219,160.93945 199,199 0 0 0 301.95312,150.51562 199,199 0 0 0 150.0293,80.013672 Z" transform="translate(387.252 246.188)"/><path d="M 292.41406,140.02539 A 185,185 0 0 1 150.0293,207.01562 185,185 0 0 1 7.8164062,140.08984 a 199,199 0 0 0 -9.7109374,10.42578 199,199 0 0 0 151.9238312,70.5 199,199 0 0 0 151.66601,-70.5 199,199 0 0 0 -9.28125,-10.49023 z" transform="translate(387.252 246.188)"/><circle cx="537.281" cy="396.703" r="15"/><path d="m 537.2811,346.70257 a 50,50 0 0 0 -50.00001,50 50,50 0 0 0 50.00001,50 50,50 0 0 0 50,-50 50,50 0 0 0 -50,-50 z m 0,14 a 36,36 0 0 1 36,36 36,36 0 0 1 -36,36 36,36 0 0 1 -36,-36 36,36 0 0 1 36,-36 z"/></g></svg>