<svg xmlns="http://www.w3.org/2000/svg" width="45" height="50" viewBox="0 0 45.000001 50.000001"><defs><filter id="a" x="-.163" width="1.326" y="-.163" height="1.326" color-interpolation-filters="sRGB"><feGaussianBlur stdDeviation="1.87"/></filter></defs><g transform="rotate(45 1484.937 -5012.192)" filter="url(#a)"><g transform="translate(-10.92 -1.917)"><path d="m 4000,-417.934 25,0 0,5 -25,0 z"/><circle cx="4000" cy="-415.434" r="2.5"/></g><g transform="rotate(90 4017.998 -421.853)"><path d="m 4000,-417.934 25,0 0,5 -25,0 z"/><circle r="2.5" cy="-415.434" cx="4000"/></g></g><g fill="#fff"><g transform="rotate(45 1492.713 -5024.416)"><path d="m 4000,-417.934 25,0 0,5 -25,0 z"/><circle r="2.5" cy="-415.434" cx="4000"/></g><g transform="rotate(135 1931.603 -1024.416)"><path d="m 4000,-417.934 25,0 0,5 -25,0 z"/><circle cx="4000" cy="-415.434" r="2.5"/></g></g></svg>