<svg xmlns="http://www.w3.org/2000/svg" width="19" height="19" viewBox="0 0 19 19"><g fill="#fff"><path d="M2204.6074 191.75586c-.046-.004-.099.007-.164.0352-2.3124 1.01953-6.4786 2.85957-8.0293 3.56836-.1524.0697-.6114.24189-.6114.75976l0 9.75781c0 .12216.1265.19904.2403.14844l8.4238-3.74609c.2384-.10616.3359-.29135.3359-.39453l0-9.76563c0-.20236-.058-.3503-.1953-.36328zm-5.4121 4.73633a1.0663799 1.6053365 27.791448 0 1 .4746.16211 1.0663799 1.6053365 27.791448 0 1-.025 2.02148 1.0663799 1.6053365 27.791448 0 1-1.7031.66602 1.0663799 1.6053365 27.791448 0 1 .025-2.02149 1.0663799 1.6053365 27.791448 0 1 1.2285-.82812zm3.0254 2.23437a1.0276224 1.5469906 27.79145 0 1 .457.15625 1.0276224 1.5469906 27.79145 0 1-.025 1.94727 1.0276224 1.5469906 27.79145 0 1-1.6406.64258 1.0276224 1.5469906 27.79145 0 1 .025-1.94727 1.0276224 1.5469906 27.79145 0 1 1.1836-.79883zM2185.998 191.75586c-.1377.013-.1953.16092-.1953.36328l0 9.76563c0 .10318.098.28837.336.39453l8.4238 3.74609c.1138.0506.2402-.0263.2402-.14844l0-9.75781c0-.51787-.4589-.6901-.6113-.75976-1.5507-.7088-5.7149-2.54883-8.0273-3.56836-.065-.0285-.1201-.0395-.1661-.0352zm6.3829 3.89453a1.6357266 1.0865672 61.40824 0 1 1.4785 1.19727 1.6357266 1.0865672 61.40824 0 1-.3965 1.82226 1.6357266 1.0865672 61.40824 0 1-1.6992-1.16406 1.6357266 1.0865672 61.40824 0 1 .3945-1.82031 1.6357266 1.0865672 61.40824 0 1 .2227-.0352zm-2.5938 1.93164a1.5771503 1.0476566 61.40824 0 1 1.4258 1.15625 1.5771503 1.0476566 61.40824 0 1-.3809 1.75586 1.5771503 1.0476566 61.40824 0 1-1.6386-1.12109 1.5771503 1.0476566 61.40824 0 1 .3808-1.75586 1.5771503 1.0476566 61.40824 0 1 .2129-.0352zm-2.4726 1.84375a1.53532 1.0198699 61.40824 0 1 1.3886 1.125 1.53532 1.0198699 61.40824 0 1-.3711 1.70899 1.53532 1.0198699 61.40824 0 1-1.5957-1.0918 1.53532 1.0198699 61.40824 0 1 .3711-1.70899 1.53532 1.0198699 61.40824 0 1 .2071-.0332zM2195.2793 187.26367c-.2377.003-.4676.0486-.6855.12891l-8.0606 2.9707c-.202.0817-.3343.42194 0 .57422l7.6992 3.24219c.7992.33679 1.4191.30466 2.1426 0l7.6992-3.24219 0-.002c.3283-.15297.1974-.49087 0-.57227l-8.0625-2.9707c-.2485-.0916-.4948-.13173-.7324-.12891zm.023 2.86914a1.6734587.74890563 0 0 1 1.6739.74805 1.6734587.74890563 0 0 1-1.6739.75 1.6734587.74890563 0 0 1-1.6738-.75 1.6734587.74890563 0 0 1 1.6738-.74805z" transform="translate(-2185.803 -187.152)"/></g></svg>