<svg xmlns="http://www.w3.org/2000/svg" width="207.532" height="136.533" viewBox="0 0 194.56131 127.99999"><path d="M-3096.1843-2426.7663l-55.7143 592.8571M-3406.1843-1798.1949l298.5715-65.7143" fill="none" stroke="#000" transform="translate(-10273.097 -7631.753)"/><g transform="matrix(1.07215 0 0 1.07215 -11014.284 -8191.606)"><g fill="#284a74"><path transform="matrix(.02531 0 0 .02531 10060.8 7708.96)" d="M9738.0117-2709.7246c-99.72 0-180 80.28-180 180l0 3469.99999c0 99.72001 80.28 180.00001 180 180.00001l4920.0003 0c99.72 0 180-80.28 180-180.00001l0-3469.99999c0-99.72-80.28-180-180-180l-4920.0003 0zm2460.0003 85.584a30 30 0 0 1 30 30 30 30 0 0 1-30 30 30 30 0 0 1-30-30 30 30 0 0 1 30-30zm-2385.0003 169.416l4770.0003 0 0 2719.99999-4770.0003 0 0-2719.99999zM11623.225 1170.2754l-38.823 441.8437c0 0-2.734 39.6237-14.142 54.5469-9.892 12.9405-42.428 24.2442-42.428 24.2442l-219.691 58.8632 842.841 0 94.059 0 842.842 0-219.692-58.8632c0 0-32.535-11.3037-42.427-24.2442-11.407-14.9232-14.141-54.5469-14.141-54.5469l-38.824-441.8437-1149.574 0zm-315.213 580l0 40 1780 0 0-40-1780 0z"/></g><rect ry="2.531" rx="2.531" y="7714.087" x="10280.818" height="44.552" width="64.043" fill="#fff" stroke="#fff" stroke-width="1.266" stroke-linecap="round"/><rect ry="2.531" rx="2.531" width="42.906" height="60.752" x="10407.768" y="7692.491" fill="#fff" stroke="#fff" stroke-width="1.266" stroke-linecap="round"/><path d="m 10410.299,7692.4911 c -1.402,0 -2.531,1.1289 -2.531,2.5313 l 0,55.6896 c 0,1.4023 1.129,2.5313 2.531,2.5313 l 37.844,0 c 1.402,0 2.531,-1.129 2.531,-2.5313 l 0,-55.6896 c 0,-1.4024 -1.129,-2.5313 -2.531,-2.5313 l -37.844,0 z m 18.922,2.4653 a 0.34173144,0.34173144 0 0 1 0.342,0.3417 0.34173144,0.34173144 0 0 1 -0.342,0.3418 0.34173144,0.34173144 0 0 1 -0.342,-0.3418 0.34173144,0.34173144 0 0 1 0.342,-0.3417 z m -18.858,2.8897 37.717,0 0,50.1206 -37.717,0 0,-50.1206 z m 18.858,51.6165 a 1.1391048,1.1391048 0 0 1 1.139,1.1391 1.1391048,1.1391048 0 0 1 -1.139,1.1391 1.1391048,1.1391048 0 0 1 -1.139,-1.1391 1.1391048,1.1391048 0 0 1 1.139,-1.1391 z" fill="#284a74"/><g transform="translate(-3.8 -5.3)"><rect width="16.985" height="34.933" x="10440.748" y="7727.901" rx="2.531" ry="2.531" fill="#fff" stroke="#fff" stroke-width="1.266" stroke-linecap="round"/><path d="m 10443.279,7727.9013 c -1.402,0 -2.531,1.129 -2.531,2.5313 l 0,29.8699 c 0,1.4024 1.129,2.5313 2.531,2.5313 l 11.923,0 c 1.402,0 2.531,-1.1289 2.531,-2.5313 l 0,-29.8699 c 0,-1.4023 -1.129,-2.5313 -2.531,-2.5313 l -11.923,0 z m 3.256,1.7022 a 0.27844784,0.27844784 0 0 1 0.279,0.2784 0.27844784,0.27844784 0 0 1 -0.279,0.2785 0.27844784,0.27844784 0 0 1 -0.278,-0.2785 0.27844784,0.27844784 0 0 1 0.278,-0.2784 z m 1.503,0.1507 2.405,0 c 0.07,0 0.127,0.056 0.127,0.1266 l 0,0 c 0,0.07 -0.06,0.1266 -0.127,0.1266 l -2.405,0 c -0.07,0 -0.126,-0.057 -0.126,-0.1266 l 0,0 c 0,-0.07 0.06,-0.1266 0.126,-0.1266 z m -6.362,2.0422 15.129,0 0,26.91 -15.129,0 0,-26.91 z m 7.565,27.6743 a 1.2150451,1.2150451 0 0 1 1.215,1.215 1.2150451,1.2150451 0 0 1 -1.215,1.2151 1.2150451,1.2150451 0 0 1 -1.215,-1.2151 1.2150451,1.2150451 0 0 1 1.215,-1.215 z" fill="#284a74"/></g><g fill="#284a74"><path transform="matrix(.02531 0 0 .02531 10252.867 7679.52)" d="M1204.2109 1365.5762c-55.4 0-100 44.6-100 100l0 1560c0 7.141.7447 14.1008 2.1543 20.8105l2525.6895 0c1.4097-6.7097 2.1562-13.6695 2.1562-20.8105l0-1560c0-55.4-44.6-100-100-100l-2330 0zm1165 44.9707a15 15 0 0 1 15 15 15 15 0 0 1-15 15 15 15 0 0 1-15-15 15 15 0 0 1 15-15zm-1187.5 60.4609l2375 0 0 1485-2375 0 0-1485zM799.21094 3066.3867l0 57 .0117 0c-.001.066-.0117.1327-.0117.1992 0 25.484 100.94606 46 226.33786 46l2687.3223 0c125.3919 0 226.3398-20.516 226.3398-46 0-.066-.01-.1327-.012-.1992l.012 0 0-57-1350 0c0 21.0511-16.9486 37.9981-38 37.9981l-364 0c-21.0513 0-37.9989-16.947-38-37.9981l-1349.99996 0z"/></g></g></svg>