<svg xmlns="http://www.w3.org/2000/svg" width="34.133" height="34.133" viewBox="0 0 31.999999 31.999999"><g transform="translate(-18.748 -348.757)"><rect width="32" height="32" x="18.748" y="348.757" rx="2" ry="2" fill="#284a74"/><g transform="matrix(.11197 0 0 .11197 -22.918 340.362)" stroke="#fff" stroke-linecap="round"><path d="m 515.00002,110.31023 0,31.46625" fill="#fff" fill-rule="evenodd" stroke-width="6"/><circle r="45.708" cy="217.862" cx="515" fill="#fff" stroke-width="3.585"/><path d="M578.21745 130.85082l-18.49539 25.45673M617.28799 184.62681l-29.92618 9.7236M617.28799 251.09758l-29.92618-9.72361M578.21742 304.87356L559.72203 279.41683M515 325.41416l0-31.46625M451.78255 304.87357l18.49539-25.45673M412.71201 251.09758l29.92618-9.7236M412.71201 184.62681l29.92618 9.72361M451.78255 130.85083l18.4954 25.45673" fill="#fff" fill-rule="evenodd" stroke-width="6"/><path d="M492.53175 112.15738l4.33033 20.37257M471.04546 119.13869l8.47139 19.02706M537.46825 323.56701l-4.33032-20.37257M558.95454 316.5857l-8.47139-19.02706" fill="#fff" fill-rule="evenodd" stroke-width="2.441"/><circle cx="544.7" cy="-126.455" r="120" transform="rotate(36)" fill="none" stroke-width="10.1"/><path d="M537.46825 112.15738l-4.33032 20.37257M558.95454 119.13869l-8.47139 19.02706M492.53175 323.56701l4.33033-20.37257M471.04546 316.5857l8.47139-19.02706M608.58817 271.89536L590.55085 261.4815M595.30891 290.17268L579.8309 276.23622M622.47432 229.1582l-20.71361-2.17709M622.47433 206.56619l-20.71362 2.17709M407.52566 206.56619l20.71361 2.17709M407.52565 229.1582l20.71362-2.17709M421.4118 163.82903l18.03733 10.41386M434.69105 145.5517l15.47801 13.93646M595.30893 145.55171l-15.478 13.93645M608.58819 163.82903l-18.03732 10.41386M434.69108 290.17268l15.478-13.93645M421.41182 271.89535L439.44914 261.4815" fill="#fff" fill-rule="evenodd" stroke-width="2.441"/></g></g></svg>