<?xml version="1.0" encoding="UTF-8" standalone="no"?>
<svg
   xmlns:dc="http://purl.org/dc/elements/1.1/"
   xmlns:cc="http://creativecommons.org/ns#"
   xmlns:rdf="http://www.w3.org/1999/02/22-rdf-syntax-ns#"
   xmlns:svg="http://www.w3.org/2000/svg"
   xmlns="http://www.w3.org/2000/svg"
   xmlns:sodipodi="http://sodipodi.sourceforge.net/DTD/sodipodi-0.dtd"
   xmlns:inkscape="http://www.inkscape.org/namespaces/inkscape"
   viewBox="0 0 63.999998 63.999998"
   height="64"
   width="64"
   id="svg2"
   version="1.1"
   inkscape:version="0.91 r13725"
   sodipodi:docname="sandbox.svg">
  <metadata
     id="metadata32">
    <rdf:RDF>
      <cc:Work
         rdf:about="">
        <dc:format>image/svg+xml</dc:format>
        <dc:type
           rdf:resource="http://purl.org/dc/dcmitype/StillImage" />
        <dc:title></dc:title>
      </cc:Work>
    </rdf:RDF>
  </metadata>
  <defs
     id="defs30" />
  <sodipodi:namedview
     pagecolor="#ffffff"
     bordercolor="#666666"
     borderopacity="1"
     objecttolerance="10"
     gridtolerance="10"
     guidetolerance="10"
     inkscape:pageopacity="0"
     inkscape:pageshadow="2"
     inkscape:window-width="1918"
     inkscape:window-height="1184"
     id="namedview28"
     showgrid="false"
     inkscape:zoom="4"
     inkscape:cx="1930.8043"
     inkscape:cy="158.63789"
     inkscape:window-x="0"
     inkscape:window-y="14"
     inkscape:window-maximized="0"
     inkscape:current-layer="svg2" />
  <rect
     style="opacity:1;fill:#284a74;fill-opacity:1;stroke:none;stroke-width:0.91500002;stroke-linecap:round;stroke-linejoin:miter;stroke-miterlimit:4;stroke-dasharray:none;stroke-opacity:1"
     id="rect4179"
     width="2999.9998"
     height="54.999992"
     x="-654.54608"
     y="-104.67089" />
  <g
     id="g4205">
    <rect
       y="-96.170891"
       x="2154.2891"
       height="37.999996"
       width="59.842514"
       id="rect4193"
       style="opacity:1;fill:#184884;fill-opacity:1;stroke:none;stroke-width:0.91500002;stroke-linecap:round;stroke-linejoin:miter;stroke-miterlimit:4;stroke-dasharray:none;stroke-opacity:1" />
    <rect
       y="-77.170891"
       x="2167.3213"
       height="18.999998"
       width="24.999996"
       id="rect4181"
       style="opacity:1;fill:#ffffff;fill-opacity:1;stroke:none;stroke-width:0.91500002;stroke-linecap:round;stroke-linejoin:miter;stroke-miterlimit:4;stroke-dasharray:none;stroke-opacity:1" />
    <path
       inkscape:connector-curvature="0"
       id="path4183"
       d="m 2179.8223,-96.170891 a 10.500001,10.500001 0 0 0 -10.5,10.5 l 3,0 a 7.5000008,7.5000008 0 0 1 7.5,-7.5 7.5000008,7.5000008 0 0 1 7.5,7.5 l 3,0 a 10.500001,10.500001 0 0 0 -10.5,-10.5 z"
       style="opacity:1;fill:#ffffff;fill-opacity:1;stroke:none;stroke-width:0.91500002;stroke-linecap:round;stroke-linejoin:miter;stroke-miterlimit:4;stroke-dasharray:none;stroke-opacity:1" />
    <rect
       y="-85.670891"
       x="2169.3223"
       height="15.999998"
       width="2.9999995"
       id="rect4201"
       style="opacity:1;fill:#ffffff;fill-opacity:1;stroke:none;stroke-width:0.91500002;stroke-linecap:round;stroke-linejoin:miter;stroke-miterlimit:4;stroke-dasharray:none;stroke-opacity:1" />
    <rect
       style="opacity:1;fill:#ffffff;fill-opacity:1;stroke:none;stroke-width:0.91500002;stroke-linecap:round;stroke-linejoin:miter;stroke-miterlimit:4;stroke-dasharray:none;stroke-opacity:1"
       id="rect4203"
       width="2.9999995"
       height="15.999998"
       x="2187.3223"
       y="-85.670891" />
  </g>
  <rect
     y="-77.170891"
     x="1934.7209"
     height="18.999998"
     width="24.999996"
     id="rect4216"
     style="opacity:1;fill:#ffffff;fill-opacity:1;stroke:none;stroke-width:0.91500002;stroke-linecap:round;stroke-linejoin:miter;stroke-miterlimit:4;stroke-dasharray:none;stroke-opacity:1" />
  <path
     inkscape:connector-curvature="0"
     style="opacity:1;fill:#ffffff;fill-opacity:1;stroke:none;stroke-width:0.91500002;stroke-linecap:round;stroke-linejoin:miter;stroke-miterlimit:4;stroke-dasharray:none;stroke-opacity:1"
     d="m 1947.2218,-96.170992 a 10.500002,10.500002 0 0 0 -10.5,10.5 l 0,16 3,0 0,-16 a 7.5000017,7.5000017 0 0 1 7.5,-7.5 7.5000017,7.5000017 0 0 1 7.5,7.5 l 0,16 3,0 0,-16 a 10.500002,10.500002 0 0 0 -10.5,-10.5 z"
     id="path4218" />
  <rect
     style="opacity:1;fill:#ffffff;fill-opacity:1;stroke:none;stroke-width:0.91500002;stroke-linecap:round;stroke-linejoin:miter;stroke-miterlimit:4;stroke-dasharray:none;stroke-opacity:1"
     id="rect4236"
     width="24.999996"
     height="18.999998"
     x="1879.9208"
     y="-77.170891" />
  <path
     inkscape:connector-curvature="0"
     id="path4238"
     d="m 1892.4225,-96.170992 a 10.500002,10.500002 0 0 0 -10.5,10.5 l 0,16 3,0 0,-16 a 7.5000017,7.5000017 0 0 1 7.5,-7.5 7.5000017,7.5000017 0 0 1 7.5,7.5 l 0,16 3,0 0,-16 a 10.500002,10.500002 0 0 0 -10.5,-10.5 z"
     style="opacity:1;fill:#ffffff;fill-opacity:1;stroke:none;stroke-width:0.91500002;stroke-linecap:round;stroke-linejoin:miter;stroke-miterlimit:4;stroke-dasharray:none;stroke-opacity:1" />
  <rect
     style="opacity:1;fill:#284a74;fill-opacity:1;stroke:none;stroke-width:0.91500002;stroke-linecap:round;stroke-linejoin:miter;stroke-miterlimit:4;stroke-dasharray:none;stroke-opacity:1"
     id="rect4242"
     width="20.859648"
     height="5.9999995"
     x="1868.9047"
     y="-83.170891" />
  <rect
     style="opacity:1;fill:#284a74;fill-opacity:1;stroke:none;stroke-width:0.91500002;stroke-linecap:round;stroke-linejoin:miter;stroke-miterlimit:4;stroke-dasharray:none;stroke-opacity:1"
     id="rect4244"
     width="3"
     height="9"
     x="1890.9208"
     y="-72.170891"
     rx="1.5"
     ry="1.5" />
  <rect
     ry="1.5"
     rx="1.5"
     y="-72.170891"
     x="1945.7209"
     height="9"
     width="3"
     id="rect4246"
     style="opacity:1;fill:#284a74;fill-opacity:1;stroke:none;stroke-width:0.91500002;stroke-linecap:round;stroke-linejoin:miter;stroke-miterlimit:4;stroke-dasharray:none;stroke-opacity:1" />
</svg>
